<svg xmlns="http://www.w3.org/2000/svg" viewBox="0 0 32 32" width="32" height="32">
  <defs>
    <linearGradient id="blueGradient" x1="0%" y1="0%" x2="100%" y2="100%">
      <stop offset="0%" style="stop-color:#0066cc;stop-opacity:1" />
      <stop offset="100%" style="stop-color:#004499;stop-opacity:1" />
    </linearGradient>
  </defs>
  
  <!-- 背景圆形 -->
  <circle cx="16" cy="16" r="15" fill="url(#blueGradient)" stroke="#003366" stroke-width="1"/>
  
  <!-- CF字母 -->
  <!-- C -->
  <path d="M6 16 Q6 10 10 10 L14 10 L14 12 L10 12 Q8 12 8 14 L8 18 Q8 20 10 20 L14 20 L14 22 L10 22 Q6 22 6 16 Z" 
        fill="white"/>
  
  <!-- F -->
  <rect x="18" y="10" width="2" height="12" fill="white"/>
  <rect x="18" y="10" width="6" height="2" fill="white"/>
  <rect x="18" y="15" width="4" height="2" fill="white"/>
  
  <!-- 计算机符号装饰 -->
  <!-- 代码括号 -->
  <text x="4" y="8" font-family="monospace" font-size="6" fill="#66b3ff" opacity="0.7">&lt;</text>
  <text x="26" y="8" font-family="monospace" font-size="6" fill="#66b3ff" opacity="0.7">/&gt;</text>
  
  <!-- 二进制点 -->
  <circle cx="4" cy="26" r="0.8" fill="#66b3ff" opacity="0.6"/>
  <circle cx="7" cy="28" r="0.6" fill="#66b3ff" opacity="0.5"/>
  <circle cx="28" cy="26" r="0.8" fill="#66b3ff" opacity="0.6"/>
  <circle cx="25" cy="28" r="0.6" fill="#66b3ff" opacity="0.5"/>
</svg>
